<?xml version="1.0" standalone="no"?>
<!DOCTYPE svg PUBLIC "-//W3C//DTD SVG 20010904//EN"
 "http://www.w3.org/TR/2001/REC-SVG-20010904/DTD/svg10.dtd">
<svg xmlns="http://www.w3.org/2000/svg" viewBox="0 0 296 284" preserveAspectRatio="xMidYMid meet">
<metadata>
Created by potrace 1.10, written by Peter Selinger 2001-2011
</metadata>
  <g transform="translate(0,284) scale(0.1,-0.1)" fill="#7fff00" stroke="none">
<path d="M1294 2823 c-4 -10 -6 -21 -6 -25 1 -5 -3 -8 -9 -8 -5 0 -8 -4 -5 -9
3 -5 -3 -20 -14 -33 -14 -19 -16 -28 -8 -36 9 -9 9 -12 -2 -12 -10 0 -9 -4 4
-13 17 -12 16 -15 -10 -32 -16 -11 -35 -18 -43 -17 -7 2 -10 -1 -6 -7 3 -6 -1
-11 -11 -11 -10 0 -15 -3 -11 -6 6 -7 -35 -50 -45 -47 -4 2 -13 -7 -19 -19 -7
-13 -18 -29 -25 -36 -8 -7 -18 -31 -24 -53 -7 -25 -15 -37 -22 -33 -6 4 -8 3
-5 -3 3 -5 0 -29 -7 -54 -7 -24 -12 -65 -12 -91 1 -27 -2 -48 -7 -48 -6 0 -6
-5 0 -12 5 -7 8 -30 7 -50 0 -21 2 -35 6 -33 9 6 6 -27 -5 -44 -5 -10 -4 -12
3 -7 8 5 12 -2 13 -21 3 -61 11 -126 24 -194 2 -11 7 -68 11 -128 l7 -108 -32
-19 c-17 -10 -31 -22 -31 -27 0 -5 14 2 31 14 32 23 89 33 89 17 0 -5 7 -2 16
6 8 9 21 16 28 16 7 0 28 7 46 16 18 10 47 16 64 15 17 -1 38 -3 46 -3 8 -1
33 -12 55 -26 22 -14 42 -24 44 -23 6 6 90 -82 86 -90 -3 -4 1 -9 9 -12 7 -3
16 -17 18 -32 4 -17 1 -25 -6 -22 -6 3 -12 -9 -13 -29 -2 -19 1 -34 5 -34 5 0
7 -19 6 -42 -1 -22 1 -35 6 -29 5 10 9 9 13 -2 3 -9 -1 -18 -9 -21 -8 -3 -14
-14 -14 -25 0 -11 -4 -23 -10 -26 -6 -3 -7 1 -4 9 7 19 -12 22 -20 4 -5 -10
-7 -10 -12 0 -5 10 -10 10 -25 -4 -11 -9 -19 -12 -19 -6 0 11 -12 9 -55 -8
-28 -11 -115 -30 -149 -32 -15 -2 -30 -8 -33 -15 -3 -8 -12 -9 -29 -2 -14 5
-23 5 -20 0 8 -12 -20 -22 -39 -15 -9 4 -15 0 -15 -9 0 -11 -10 -14 -35 -13
-19 1 -35 -3 -35 -7 0 -5 -6 -7 -14 -4 -10 4 -12 0 -9 -14 3 -11 0 -19 -6 -19
-7 0 -9 5 -5 13 5 7 0 6 -11 -3 -11 -9 -16 -10 -11 -2 13 22 -9 13 -24 -10
-14 -23 -16 -28 -19 -49 0 -6 -17 -26 -36 -45 -36 -34 -75 -51 -94 -39 -21 12
-11 57 17 83 15 13 20 22 11 19 -13 -4 -16 0 -15 18 0 13 5 23 10 22 5 -1 11
4 14 12 2 8 0 11 -5 8 -5 -3 -10 0 -10 8 0 8 4 12 9 9 8 -5 13 12 8 31 -1 6
-3 15 -3 22 0 7 -4 10 -9 7 -4 -3 -8 10 -8 28 0 21 -3 28 -8 20 -6 -9 -16 -10
-33 -4 -13 5 -29 7 -35 5 -6 -2 -25 10 -43 26 -17 16 -31 26 -31 23 0 -3 -6 3
-14 14 -11 14 -26 19 -64 19 -44 0 -53 -4 -90 -41 -23 -23 -39 -43 -36 -46 2
-3 0 -17 -6 -32 -7 -20 -7 -25 2 -20 8 5 9 2 4 -11 -4 -11 -2 -22 6 -26 10 -6
9 -15 -3 -41 -25 -52 -13 -132 23 -160 61 -47 132 -39 191 22 19 20 36 28 50
26 12 -3 25 -5 29 -5 4 -1 10 -10 13 -22 11 -35 45 -40 94 -13 24 13 47 21 52
18 5 -3 6 2 2 12 -5 13 -3 15 13 7 10 -5 31 -9 47 -8 15 0 27 -3 27 -8 0 -4 4
-6 9 -3 16 11 -15 -99 -41 -142 -13 -23 -26 -40 -29 -38 -2 2 -10 -2 -17 -10
-10 -11 -10 -14 0 -14 7 0 -4 -14 -25 -31 -45 -37 -67 -72 -40 -62 32 12 95
71 129 121 26 40 74 181 74 221 0 4 -33 5 -72 3 l-73 -3 40 26 c22 14 72 38
110 54 59 24 79 28 130 24 33 -3 56 -2 52 3 -4 5 -25 7 -45 5 -20 -1 -34 0
-31 3 11 12 274 66 320 66 26 0 51 6 57 13 16 19 17 68 3 118 -9 33 -10 56 -3
81 16 58 4 88 -62 153 -111 110 -203 130 -330 72 -32 -15 -60 -26 -61 -25 -2
2 -6 50 -9 108 -4 58 -11 134 -16 170 -5 36 -12 88 -15 115 -3 28 -8 60 -10
72 -3 12 -8 57 -10 99 -13 179 54 315 202 410 29 19 57 34 63 34 14 0 12 18
-4 27 -16 10 -40 53 -32 60 2 3 19 -5 36 -17 17 -12 33 -20 35 -18 3 2 -4 22
-15 43 -11 22 -20 48 -20 59 0 18 2 18 28 -5 72 -67 127 -83 282 -84 167 -2
267 -34 354 -114 28 -25 106 -134 106 -146 0 -4 7 -21 14 -38 39 -85 52 -183
61 -467 3 -96 8 -209 10 -250 3 -41 7 -120 10 -175 7 -128 12 -186 26 -315 13
-121 46 -195 113 -261 39 -39 33 -51 -14 -24 -63 36 -43 4 31 -51 53 -39 85
-38 48 2 -12 13 -23 35 -23 47 -1 13 -9 32 -19 41 -25 26 -72 97 -86 132 -6
17 -14 55 -16 85 -2 30 -7 74 -10 99 -8 71 -13 135 -20 280 -3 74 -9 169 -12
210 -3 41 -6 139 -6 217 -1 78 -5 139 -9 137 -4 -3 -4 6 1 19 6 14 7 27 4 30
-3 3 -7 32 -10 64 -3 32 -9 63 -14 69 -5 6 -6 14 -2 17 3 4 2 17 -4 30 -16 34
-35 91 -36 105 0 6 -4 12 -9 12 -5 0 -7 4 -4 8 3 5 -8 24 -24 43 -30 35 -39
56 -18 43 7 -4 8 -3 4 5 -4 6 -10 9 -14 7 -9 -5 -32 20 -25 28 4 3 0 6 -8 6
-8 0 -21 9 -29 20 -8 11 -20 20 -27 20 -7 0 -13 4 -13 9 0 5 -16 15 -35 21
-19 6 -35 16 -35 20 0 23 -109 43 -249 46 -101 3 -152 8 -173 19 -17 8 -36 12
-42 8 -6 -3 -8 -3 -4 2 8 9 -75 65 -96 65 -8 0 -17 -8 -22 -17z m-646 -1526
c12 -11 22 -26 22 -32 0 -11 39 -26 109 -40 30 -6 33 -10 28 -35 -3 -15 -9
-51 -13 -80 l-7 -52 -38 6 c-20 3 -44 9 -53 12 -10 4 -17 -2 -22 -20 -15 -63
-118 -101 -157 -58 -47 51 -39 121 19 172 20 17 33 34 30 37 -3 4 -17 -3 -29
-15 -29 -27 -37 -20 -37 30 0 51 14 77 53 93 37 16 63 11 95 -18z"/>
<path d="M685 1185 c35 -16 55 -19 55 -6 0 5 -14 11 -31 15 -48 9 -57 6 -24
-9z"/>
<path d="M695 1161 c6 -5 28 -12 50 -16 26 -4 35 -3 25 3 -22 13 -87 25 -75
13z"/>
<path d="M665 1132 c6 -5 35 -13 65 -16 64 -7 41 7 -30 19 -30 5 -42 4 -35 -3z"/>
<path d="M516 1081 c4 -14 2 -21 -3 -18 -17 11 -2 -42 16 -55 13 -10 14 -10 4
2 -21 23 -15 35 7 15 11 -10 22 -16 25 -13 3 3 -1 11 -10 18 -8 7 -15 18 -15
24 0 7 -7 21 -16 32 -15 18 -15 18 -8 -5z"/>
<path d="M1504 2410 c-30 -10 -104 -75 -104 -93 0 -5 20 9 44 31 95 88 218 60
316 -71 37 -50 50 -55 27 -10 -22 41 -93 109 -135 129 -44 21 -106 27 -148 14z"/>
<path d="M1485 2358 c-28 -15 -85 -70 -85 -81 0 -5 20 9 45 32 39 36 50 41 93
41 64 0 120 -40 163 -115 35 -62 53 -80 38 -38 -16 46 -82 126 -124 150 -43
24 -98 29 -130 11z"/>
<path d="M1135 2345 c-31 -16 -75 -63 -75 -80 0 -5 18 10 40 33 33 34 48 42
76 42 19 0 45 -5 57 -11 30 -15 67 -50 67 -62 0 -6 -10 -1 -22 10 -63 57 -115
58 -169 4 -22 -21 -39 -45 -39 -52 0 -8 12 1 26 19 61 77 124 75 192 -5 l39
-45 -2 31 c-2 39 -45 94 -88 115 -43 20 -64 20 -102 1z"/>
<path d="M1510 2308 c-50 -26 -103 -188 -80 -243 6 -14 9 0 9 45 1 44 4 60 11
50 6 -10 9 -6 8 16 -1 17 3 38 8 47 6 10 9 -17 9 -76 0 -60 8 -123 22 -182 28
-115 40 -254 23 -265 -9 -6 -9 -13 -1 -29 7 -12 8 -21 2 -21 -15 0 -18 20 -16
105 2 75 2 76 -4 17 -9 -88 -25 -83 -29 11 -3 85 -22 108 -22 26 0 -89 18
-134 76 -197 60 -63 79 -107 71 -158 -8 -47 16 -45 64 5 29 32 40 55 53 110
27 120 17 416 -21 566 -33 133 -113 208 -183 173z m91 -58 c33 -31 61 -84 64
-124 2 -17 10 -74 19 -126 26 -161 17 -426 -16 -467 -6 -7 -7 -13 -4 -13 4 0
1 -6 -6 -14 -7 -8 -16 -12 -20 -10 -3 2 -8 1 -11 -3 -2 -5 -3 -3 -1 3 1 5 -4
21 -11 34 -7 13 -10 31 -7 39 3 9 1 12 -6 7 -7 -4 -12 -2 -12 5 0 7 -12 25
-27 41 -20 21 -26 36 -24 65 2 40 8 84 11 93 1 3 1 10 0 15 -1 6 -2 33 -1 62
0 29 -4 55 -9 58 -6 3 -10 11 -10 16 0 6 5 7 11 3 6 -3 3 6 -7 22 -11 15 -14
25 -8 22 6 -4 3 16 -7 45 -21 62 -28 203 -11 233 15 29 59 26 93 -6z"/>
<path d="M1143 2250 c-18 -11 -33 -24 -33 -29 0 -12 25 -32 32 -26 3 3 3 -25
1 -62 -3 -45 2 -105 16 -178 21 -111 28 -240 11 -200 -5 11 -9 47 -9 80 -1 33
-5 67 -11 75 -12 20 -5 -147 9 -182 10 -27 10 -27 47 -12 22 9 59 14 93 13
l56 -3 0 75 c0 41 -5 129 -12 197 -14 146 -42 220 -95 252 -41 25 -64 25 -105
0z m104 -47 c41 -48 45 -54 39 -60 -3 -3 1 -20 8 -38 21 -50 38 -316 22 -333
-13 -12 -94 -13 -102 0 -4 7 -9 40 -11 73 -2 33 -10 94 -18 135 -11 60 -21
206 -16 243 3 19 55 5 78 -20z"/>
<path d="M1096 2184 c-4 -10 -2 -13 6 -8 8 5 9 2 5 -10 -4 -10 -9 -30 -12 -44
-4 -18 2 -12 15 16 19 42 19 62 0 62 -4 0 -11 -7 -14 -16z"/>
<path d="M1451 2079 c0 -19 5 -43 10 -54 6 -13 7 -4 3 30 -8 60 -14 72 -13 24z"/>
<path d="M1481 1885 l1 -70 10 52 c6 35 6 58 -1 70 -8 14 -10 1 -10 -52z"/>
<path d="M1250 1602 c-19 -9 -41 -29 -49 -44 -13 -23 -13 -30 -1 -52 13 -25
43 -37 38 -15 -4 14 40 45 74 53 23 5 27 3 22 -11 -2 -10 1 -7 8 6 10 19 9 28
-3 50 -18 32 -43 36 -89 13z m80 -23 c0 -5 -12 -15 -27 -21 -16 -7 -39 -20
-52 -30 -25 -19 -46 -24 -37 -9 4 5 1 11 -5 13 -18 6 26 51 62 64 33 11 59 4
59 -17z"/>
<path d="M943 1533 c-48 -56 -117 -185 -111 -205 2 -5 14 17 27 49 25 61 79
142 120 181 13 12 22 25 19 27 -3 3 -28 -20 -55 -52z"/>
<path d="M1953 1323 c-13 -3 -23 -9 -23 -14 0 -5 -11 -14 -25 -19 -18 -7 -23
-14 -18 -26 4 -11 3 -15 -5 -10 -6 3 -13 2 -16 -3 -10 -16 -76 -11 -76 6 0 12
-2 12 -16 -1 -20 -21 -31 -20 -37 2 -4 16 -5 16 -6 -1 0 -10 -6 -15 -11 -12
-15 9 -119 12 -132 4 -14 -9 41 -17 173 -24 l106 -7 46 46 c37 38 51 46 82 46
54 0 95 -44 95 -102 0 -24 -4 -50 -10 -58 -7 -12 -12 -11 -32 5 l-23 20 23
-26 c12 -14 30 -41 40 -60 15 -29 15 -38 4 -62 -34 -70 -110 -74 -162 -8 -30
36 -34 38 -93 39 -34 1 -111 4 -172 7 -76 4 -103 2 -87 -5 12 -5 29 -7 37 -4
8 4 15 2 15 -2 0 -5 41 -10 91 -12 135 -3 194 -19 205 -55 3 -10 12 -16 19
-13 7 2 16 -2 19 -10 3 -9 10 -13 15 -10 5 4 21 2 35 -4 18 -7 29 -6 38 4 8 7
23 18 35 25 14 7 20 17 17 26 -4 8 -3 23 2 32 12 27 12 53 1 46 -6 -4 -8 0 -4
10 3 8 -1 21 -9 28 -10 8 -11 15 -4 24 6 7 12 37 14 66 3 46 0 57 -19 75 -37
34 -81 46 -132 37z"/>
<path d="M1953 1283 c-23 -9 -14 -20 17 -21 17 0 30 3 30 8 0 5 7 7 15 4 8 -4
15 -1 15 5 0 15 -33 14 -49 -1 -11 -10 -13 -10 -7 0 7 12 0 14 -21 5z"/>
<path d="M1445 1190 c3 -5 44 -10 90 -10 46 0 87 5 90 10 4 6 -28 10 -90 10
-62 0 -94 -4 -90 -10z"/>
<path d="M1635 1170 c-11 -5 -47 -9 -80 -10 -43 -1 -54 -4 -40 -10 11 -5 56
-8 100 -8 60 0 72 2 50 8 -19 6 13 8 88 7 100 -2 114 0 90 10 -32 14 -178 16
-208 3z"/>
<path d="M1200 1131 c-67 -9 -84 -22 -82 -65 3 -71 29 -93 147 -120 153 -36
145 -36 145 -16 0 20 -43 33 -59 17 -7 -7 -13 -3 -19 12 -8 23 -9 23 -27 5
-14 -15 -17 -15 -13 -3 5 13 -2 15 -37 14 -36 -2 -42 1 -37 14 5 13 3 14 -10
4 -12 -11 -17 -9 -28 12 -7 14 -17 25 -22 25 -5 0 -6 -5 -2 -12 4 -6 3 -8 -3
-5 -6 4 -8 18 -5 32 l5 26 25 -23 c15 -13 21 -16 14 -7 -11 14 -9 16 13 11 15
-2 22 -9 18 -16 -4 -6 0 -5 9 2 14 11 18 10 28 -5 10 -16 11 -16 6 -1 -3 10
-2 17 2 16 4 -1 15 2 25 7 10 4 27 1 42 -9 30 -20 35 -20 35 0 0 14 1 14 16 0
18 -19 59 -22 48 -4 -5 8 -2 9 9 5 10 -3 17 -2 17 2 0 5 11 4 24 -2 37 -18 43
-74 11 -103 -21 -20 -25 -21 -25 -6 -1 16 -1 16 -11 0 -5 -10 -16 -15 -24 -12
-8 4 -15 1 -15 -4 0 -17 68 -26 85 -12 18 15 33 64 37 120 l3 44 -180 4 c-175
4 -234 14 -204 33 8 5 39 9 69 9 30 0 62 5 70 10 17 11 -22 11 -100 1z"/>
<path d="M1425 1132 c11 -5 58 -12 105 -16 47 -4 100 -10 119 -13 22 -4 32 -2
28 4 -4 6 -42 14 -84 17 -43 4 -103 9 -133 11 -36 4 -48 2 -35 -3z"/>
<path d="M1746 1125 c-16 -12 -17 -15 -4 -15 31 0 78 13 78 21 0 14 -53 10
-74 -6z"/>
<path d="M2260 844 c0 -15 91 -94 131 -114 21 -11 39 -22 39 -23 0 -2 -28 0
-62 4 -35 3 -65 5 -67 3 -11 -9 78 -116 90 -108 5 3 6 -2 3 -10 -5 -14 -10
-14 -41 -1 -50 21 -50 20 -9 -29 20 -24 36 -47 36 -50 0 -4 -22 5 -50 19 -53
27 -60 24 -34 -13 11 -15 25 -22 50 -22 36 0 42 6 48 55 2 17 7 37 10 46 4 9
0 21 -8 28 -8 7 -12 20 -9 28 4 11 2 14 -5 9 -7 -4 -12 -5 -12 -2 0 3 16 12
36 21 32 13 34 16 23 37 -6 13 -24 33 -40 46 l-29 23 26 22 25 22 -53 0 c-29
0 -63 4 -75 8 -13 5 -23 5 -23 1z"/>
<path d="M896 701 c-27 -9 -57 -28 -69 -41 -11 -14 -24 -24 -29 -22 -15 4 10
-35 27 -42 22 -8 19 -33 -6 -46 -11 -7 -18 -14 -15 -17 3 -3 -1 -12 -9 -19
-24 -25 -11 -48 34 -59 23 -6 40 -13 37 -15 -2 -3 12 -6 31 -8 48 -3 55 -9 41
-35 -17 -31 -20 -44 -25 -111 -3 -40 -2 -56 6 -52 7 4 9 1 5 -8 -7 -18 64 -98
80 -89 6 4 6 1 -2 -9 -10 -13 -9 -15 5 -15 22 1 85 -27 78 -35 -3 -2 1 -5 7
-5 7 -1 37 -11 66 -22 35 -14 51 -17 47 -9 -4 7 0 5 8 -5 9 -10 18 -18 21 -17
4 1 30 -4 59 -10 34 -8 140 -10 312 -8 220 3 267 6 309 22 26 9 57 19 69 21
11 3 22 7 25 10 3 2 12 -1 20 -8 9 -6 13 -7 10 -2 -4 6 2 17 14 24 11 7 17 8
13 2 -9 -15 0 -14 17 1 23 22 58 39 67 33 5 -3 12 2 15 11 3 8 11 12 17 8 8
-4 9 -3 5 4 -4 7 -2 12 4 12 17 0 80 62 98 95 26 50 31 92 18 153 -6 32 -9 69
-6 82 4 19 -1 30 -21 47 -15 13 -29 23 -31 23 -3 0 -1 -19 3 -42 39 -223 38
-233 -32 -300 -28 -26 -79 -61 -113 -78 -61 -29 -194 -71 -266 -84 -19 -3 -46
-9 -60 -12 -59 -13 -325 -16 -394 -4 -186 32 -332 93 -403 168 -54 56 -59 94
-21 167 12 22 25 58 29 80 4 22 11 51 15 65 l7 25 -29 -26 c-42 -38 -84 -63
-92 -55 -3 4 -2 10 4 14 16 11 45 62 35 62 -4 0 -14 -6 -20 -14 -10 -12 -31
-19 -104 -33 -10 -2 6 20 37 52 30 30 60 64 67 76 11 21 10 21 -35 15 -67 -10
-76 3 -20 30 48 23 119 75 99 73 -5 -1 -32 -9 -59 -18z"/>
<path d="M1917 670 c-11 -13 -13 -20 -4 -20 8 0 7 -4 -3 -10 -10 -6 -11 -10
-2 -10 6 0 12 -9 12 -20 0 -11 -2 -20 -5 -20 -8 0 -45 39 -45 48 0 5 -6 9 -14
9 -21 0 6 -38 50 -72 41 -32 51 -27 34 14 -7 17 -10 46 -8 66 2 19 4 35 3 35
0 0 -8 -9 -18 -20z"/>
<path d="M1766 655 c-3 -9 -6 -25 -6 -36 0 -10 -4 -19 -8 -19 -12 0 -43 35
-37 41 2 3 -4 5 -14 5 -18 0 -18 -2 3 -27 19 -23 79 -69 90 -69 3 0 -2 16 -10
36 -23 55 -12 77 13 28 12 -22 28 -46 37 -53 13 -11 14 -8 9 26 -3 21 -13 45
-21 53 -14 13 -15 13 -3 -2 7 -10 8 -19 2 -22 -5 -3 -18 8 -29 25 -16 25 -20
28 -26 14z"/>
<path d="M1994 652 c3 -5 2 -12 -3 -14 -5 -1 -7 -15 -4 -30 3 -15 9 -25 14
-22 13 8 11 62 -3 70 -6 4 -8 3 -4 -4z"/>
<path d="M2033 635 c17 -34 92 -107 121 -118 14 -6 16 -5 8 5 -5 7 -17 29 -26
48 -9 19 -14 27 -11 18 2 -10 0 -18 -5 -18 -6 0 -10 8 -10 18 0 13 -2 14 -9 4
-6 -10 -18 -3 -46 30 -31 36 -35 38 -22 13z"/>
<path d="M1655 620 c-6 -10 23 -66 30 -58 1 1 0 18 -2 36 -5 32 -16 41 -28 22z"/>
<path d="M1602 569 c11 -21 21 -39 23 -39 2 0 3 17 2 38 -2 30 -6 37 -24 38
l-22 2 21 -39z"/>
<path d="M1550 586 c0 -14 -6 -17 -25 -14 -37 7 -31 -5 15 -31 22 -12 40 -21
40 -19 -1 16 -29 78 -30 64z"/>
<path d="M2156 592 c-3 -5 5 -24 17 -43 l22 -34 3 29 c2 16 -1 33 -7 39 -8 8
-11 7 -11 -2 0 -7 -5 -9 -10 -6 -6 4 -8 11 -5 16 4 5 4 9 1 9 -3 0 -7 -4 -10
-8z"/>
<path d="M1434 578 c3 -23 20 -45 43 -57 32 -16 34 -14 15 19 -9 16 -21 30
-25 30 -5 0 -5 -4 -2 -10 3 -6 -1 -7 -9 -4 -9 3 -14 10 -11 14 3 5 1 11 -4 14
-5 4 -8 0 -7 -6z"/>
<path d="M1105 533 c-16 -73 -16 -70 1 -48 9 11 23 34 31 50 l16 30 -22 -19
c-18 -17 -21 -17 -15 -3 3 9 3 17 0 17 -3 0 -8 -12 -11 -27z"/>
<path d="M1060 545 c5 -21 0 -36 -10 -30 -5 3 -10 1 -10 -6 0 -7 -8 -22 -17
-33 -9 -12 1 -4 22 16 32 31 37 40 26 50 -7 7 -12 9 -11 3z"/>
<path d="M1164 528 c3 -27 35 -92 42 -85 9 9 -8 77 -17 71 -5 -3 -9 2 -9 10 0
8 -4 17 -9 20 -5 4 -8 -4 -7 -16z"/>
<path d="M1338 528 c3 -13 13 -34 24 -47 l18 -24 -2 42 c-1 23 -5 44 -10 47
-4 3 -5 -1 -2 -9 3 -8 1 -18 -5 -22 -6 -3 -11 1 -11 9 0 8 -4 17 -9 20 -5 4
-7 -4 -3 -16z"/>
<path d="M1288 523 c6 -2 12 -10 12 -17 0 -7 9 -21 20 -31 23 -20 25 -14 9 18
-13 24 -29 37 -44 36 -5 0 -4 -3 3 -6z"/>
<path d="M1238 490 c9 -16 22 -30 28 -30 6 0 17 -7 24 -15 20 -24 22 -12 5 23
-10 18 -21 29 -29 26 -7 -3 -16 2 -19 10 -4 9 -11 16 -16 16 -6 0 -2 -13 7
-30z"/>
<path d="M1818 469 c-92 -13 -222 -47 -311 -80 -169 -64 -226 -73 -337 -55
-95 15 -162 2 -196 -38 -29 -33 -22 -56 31 -105 86 -79 250 -141 422 -159 396
-40 860 118 829 283 -8 40 -46 90 -85 110 -75 38 -248 60 -353 44z m218 -28
c27 -5 63 -15 79 -22 17 -7 33 -13 36 -13 12 -2 64 -53 67 -65 5 -25 -9 -51
-36 -65 -15 -8 -76 -17 -137 -20 -60 -4 -162 -18 -225 -31 -63 -14 -158 -34
-210 -46 -176 -38 -316 -22 -352 39 -17 30 -8 66 21 78 37 15 97 22 114 12 14
-7 22 -6 31 3 8 9 8 10 -1 5 -7 -4 -18 -4 -25 0 -13 9 43 32 80 33 12 1 22 6
22 12 0 7 10 9 25 7 13 -3 22 -2 20 2 -6 10 24 22 36 14 5 -3 9 -1 9 4 0 16
52 25 61 10 7 -10 9 -9 9 5 0 9 7 17 16 17 9 0 12 -5 8 -12 -4 -7 2 -5 13 5
11 10 43 20 74 23 29 3 55 7 58 9 8 9 157 5 207 -4z m-854 -154 c-1 -9 2 -18
8 -22 7 -4 9 3 6 19 -4 20 -1 26 13 26 29 0 41 -19 29 -46 -17 -37 4 -72 60
-97 81 -38 248 -27 447 28 94 27 215 45 294 45 43 0 92 5 110 11 24 8 35 8 46
-1 14 -11 14 -15 -1 -31 -9 -10 -20 -16 -24 -14 -4 3 -10 -2 -14 -10 -3 -8
-40 -31 -82 -50 -147 -68 -338 -102 -553 -100 -120 2 -145 5 -153 18 -5 9 -15
14 -22 11 -8 -3 -20 3 -28 14 -18 27 -97 72 -186 106 -81 31 -141 74 -121 86
7 5 8 13 3 21 -6 11 -5 12 7 2 12 -10 18 -10 27 -1 7 7 12 8 12 2 0 -5 18 -8
40 -6 22 2 40 8 40 13 0 5 10 5 23 0 12 -5 21 -16 19 -24z m-122 -74 c19 -12
61 -31 93 -43 31 -12 55 -25 53 -28 -2 -4 6 -8 19 -8 25 -2 75 -32 75 -45 0
-5 -12 -9 -26 -9 -14 0 -23 3 -21 8 3 4 -10 7 -28 8 -38 1 -165 60 -165 76 0
6 -3 8 -7 5 -9 -9 -53 33 -53 50 0 8 -4 11 -10 8 -5 -3 -10 1 -10 11 0 14 2
15 23 2 12 -8 38 -24 57 -35z"/>
</g>
</svg>
